<?xml version="1.0" standalone="no"?>
<!DOCTYPE svg PUBLIC "-//W3C//DTD SVG 20010904//EN"
 "http://www.w3.org/TR/2001/REC-SVG-20010904/DTD/svg10.dtd">
<svg version="1.0" xmlns="http://www.w3.org/2000/svg"
 width="30.000000pt" height="30.000000pt" viewBox="0 0 30.000000 30.000000"
 preserveAspectRatio="xMidYMid meet">

<g transform="translate(0.000000,30.000000) scale(0.100000,-0.100000)"
fill="#000000" stroke="none">
<path d="M86 248 c-9 -12 -16 -27 -16 -33 1 -5 8 2 16 18 16 29 34 36 34 12 0
-8 4 -15 9 -15 4 0 6 -11 3 -25 -6 -34 16 -65 88 -120 33 -25 60 -54 61 -63 0
-10 3 -12 5 -5 7 16 -11 47 -53 94 -23 25 -29 37 -17 32 16 -6 15 -3 -5 25
-12 18 -32 37 -43 43 -21 11 -21 12 -3 25 17 13 16 14 -9 24 -40 15 -53 13
-70 -12z"/>
<path d="M123 115 c45 -40 33 -59 -43 -66 -66 -6 -55 -8 65 -13 33 -2 76 -6
95 -10 19 -3 28 -3 20 0 -8 4 -31 21 -50 39 -19 17 -53 42 -75 54 l-40 22 28
-26z m72 -55 c3 -5 -1 -10 -10 -10 -9 0 -13 5 -10 10 3 6 8 10 10 10 2 0 7 -4
10 -10z"/>
</g>
</svg>
